<?xml version="1.0" encoding="utf-8"?>
<!-- Generator: Adobe Illustrator 23.0.2, SVG Export Plug-In . SVG Version: 6.00 Build 0)  -->
<svg version="1.1" id="レイヤー_1" xmlns="http://www.w3.org/2000/svg" xmlns:xlink="http://www.w3.org/1999/xlink" x="0px"
	 y="0px" viewBox="0 0 400 400" style="enable-background:new 0 0 400 400;" xml:space="preserve">
<style type="text/css">
	.st0{fill:#AAD6EC;stroke:#FFFFFF;stroke-miterlimit:10;}
	.st1{fill:none;}
	.st2{fill:#FFFFFF;stroke:#5B5B5B;stroke-width:10;stroke-miterlimit:10;}
	.st3{fill:#5B5B5B;stroke:#FFFFFF;stroke-miterlimit:10;}
</style>
<g>
	<path class="st0" d="M370.65,394.01H29.36c-12.91,0-23.37-10.46-23.37-23.37V29.36c0-12.91,10.46-23.37,23.37-23.37h341.27
		c12.91,0,23.37,10.46,23.37,23.37v341.27C394.02,383.54,383.55,394.01,370.65,394.01z"/>
</g>
<g>
	<line class="st1" x1="59.41" y1="229.31" x2="59.41" y2="230.2"/>
	<path class="st2" d="M206.02,81.73v251.95c63.8-13.51,136.92-2.63,151.4,7.51V58.8C273.74,58.8,206.02,69.06,206.02,81.73z"/>
	<path class="st2" d="M195.98,81.73v251.95c-63.8-13.51-136.92-2.63-151.4,7.51V58.8C128.27,58.8,195.98,69.06,195.98,81.73z"/>
	<g>
		<path class="st3" d="M262.99,113.53c1.36,0,2.71,0,4.07,0c5.87,0,13.1-0.22,18.07-0.44c0.23,0,0.45,0,0.68,0
			c8.13,0,12.2,5.76,12.2,11.74c0,5.32-3.16,10.41-9.71,11.3c-3.84,0.44-4.07,1.55-4.07,5.32c0.45,28.57,4.07,81.06,6.1,112.07
			c0.23,2.44,1.58,3.1,4.52,3.32c0.45,0,0.9,0,1.36,0c8.13,0,12.2,5.54,12.2,11.3c0,5.76-4.29,11.74-12.65,11.74
			c-0.23,0-0.68,0-0.9,0c-5.87-0.22-11.52-0.44-17.17-0.44c-6.55,0-12.88,0.22-18.3,0.44c-11.07,0.44-13.55-8.64-13.55-11.52
			c0-5.76,4.29-11.52,12.42-11.52c0.45,0,0.68,0,1.13,0s0.9,0,1.36,0c2.26,0,3.84-0.66,3.84-3.54c0-0.22,0-0.44,0-0.66
			c-2.03-36.54-2.94-103.21-2.94-103.21c-0.23-5.98-1.13-8.42-2.26-8.42c-1.36,0-3.16,3.1-4.29,7.75
			c-4.97,18.38-28.24,90.59-37.5,114.51c-2.94,7.53-10.17,12.4-17.4,12.4c-6.1,0-12.2-3.54-15.81-12.18
			c-7.23-17.05-27.11-87.71-35.47-113.84c-1.13-3.99-2.48-6.2-3.61-6.2c-2.03,0-2.71,6.42-2.94,8.42
			c-1.36,18.38-3.84,95.24-3.84,100.77c0,3.1,1.58,3.76,6.1,4.21c0.23,0,0.45,0,0.45,0c9.04,0,13.33,5.76,13.33,11.52
			c0,5.76-4.52,11.52-12.88,11.52c-0.23,0-0.68,0-0.9,0c-5.87-0.22-11.52-0.44-17.17-0.44c-6.55,0-12.88,0.22-18.3,0.44
			c-11.07,0.44-13.55-8.64-13.55-11.52c0-5.76,4.29-11.52,12.43-11.52c0.45,0,0.68,0,1.13,0c0.23,0,0.45,0,0.68,0
			c2.94,0,4.29-1.11,4.52-4.43c1.58-35.44,4.52-81.28,6.1-110.3c0-0.89,0-1.55,0-2.21c0-2.44-0.45-3.32-3.61-3.32
			c-13.55,0-14.23-8.19-14.23-11.74c0-5.98,4.07-11.74,11.97-11.74c0.45,0,0.9,0,1.36,0c3.39,0.22,7.68,0.44,12.42,0.44
			c3.39,0,7-0.22,10.17-0.22c0.45,0,0.9,0,1.13,0c10.17,0,20.78,5.09,24.85,17.94c4.29,13.29,11.52,37.43,18.3,59.36
			c13.78,44.3,16.27,50.05,18.52,50.05c0.9,0,1.81-0.89,2.48-2.66c8.58-20.38,26.43-82.39,35.47-107.86
			c3.16-8.86,10.84-16.61,23.27-16.61C262.54,113.53,262.76,113.53,262.99,113.53z"/>
	</g>
</g>
</svg>
